<svg width="63" height="63" viewBox="0 0 63 63" fill="none" xmlns="http://www.w3.org/2000/svg">
<g id="instagram_mobile">
<path id="Vector" d="M41.0047 31.6249C41.0047 34.1921 39.9848 36.6542 38.1695 38.4695C36.3543 40.2848 33.8922 41.3046 31.325 41.3046C28.7578 41.3046 26.2957 40.2848 24.4804 38.4695C22.6651 36.6542 21.6453 34.1921 21.6453 31.6249C21.6453 31.0732 21.7034 30.5343 21.8034 30.0116H18.4187V42.9082C18.4187 43.8052 19.1447 44.5312 20.0417 44.5312H42.6115C43.0414 44.5303 43.4533 44.3589 43.757 44.0547C44.0607 43.7504 44.2312 43.3381 44.2312 42.9082V30.0116H40.8466C40.9466 30.5343 41.0047 31.0732 41.0047 31.6249ZM31.325 38.078C32.1726 38.0778 33.0119 37.9106 33.795 37.5861C34.578 37.2615 35.2895 36.7859 35.8887 36.1863C36.4879 35.5868 36.9632 34.8751 37.2874 34.0919C37.6116 33.3087 37.7783 32.4693 37.7781 31.6217C37.7779 30.774 37.6107 29.9347 37.2861 29.1517C36.9616 28.3686 36.4859 27.6572 35.8864 27.058C35.2869 26.4587 34.5752 25.9835 33.792 25.6593C33.0088 25.3351 32.1694 25.1683 31.3217 25.1685C29.6098 25.169 27.9682 25.8494 26.758 27.0602C25.5478 28.271 24.8682 29.913 24.8686 31.6249C24.869 33.3368 25.5495 34.9784 26.7603 36.1886C27.9711 37.3988 29.6131 38.0785 31.325 38.078ZM39.0687 24.8491H42.9374C43.1944 24.8491 43.4409 24.7472 43.623 24.5658C43.805 24.3844 43.9077 24.1382 43.9086 23.8811V20.0125C43.9086 19.7549 43.8062 19.5079 43.6241 19.3258C43.442 19.1436 43.195 19.0413 42.9374 19.0413H39.0687C38.8111 19.0413 38.5641 19.1436 38.382 19.3258C38.1998 19.5079 38.0975 19.7549 38.0975 20.0125V23.8811C38.1008 24.4135 38.5363 24.8491 39.0687 24.8491ZM31.325 0.649902C23.1099 0.649902 15.2313 3.91333 9.42234 9.72227C3.6134 15.5312 0.349976 23.4098 0.349976 31.6249C0.349976 39.84 3.6134 47.7186 9.42234 53.5275C15.2313 59.3365 23.1099 62.5999 31.325 62.5999C35.3927 62.5999 39.4205 61.7987 43.1786 60.2421C46.9367 58.6854 50.3513 56.4038 53.2276 53.5275C56.1039 50.6512 58.3855 47.2366 59.9421 43.4785C61.4988 39.7205 62.3 35.6926 62.3 31.6249C62.3 27.5572 61.4988 23.5293 59.9421 19.7713C58.3855 16.0132 56.1039 12.5986 53.2276 9.72227C50.3513 6.84597 46.9367 4.56437 43.1786 3.00773C39.4205 1.45109 35.3927 0.649902 31.325 0.649902ZM47.4578 44.173C47.4578 46.1444 45.8445 47.7577 43.8731 47.7577H18.7769C16.8054 47.7577 15.1922 46.1444 15.1922 44.173V19.0768C15.1922 17.1054 16.8054 15.4921 18.7769 15.4921H43.8731C45.8445 15.4921 47.4578 17.1054 47.4578 19.0768V44.173Z" fill="white"/>
</g>
</svg>
