<svg width="58" height="44" viewBox="0 0 58 44" fill="none" xmlns="http://www.w3.org/2000/svg">
<path d="M55.7374 15.1675C56.2844 15.1675 56.809 14.9407 57.1958 14.537C57.5826 14.1333 57.7999 13.5859 57.7999 13.015V4.40498C57.7999 3.26322 57.3653 2.16822 56.5917 1.36088C55.8182 0.553537 54.7689 0.0999756 53.6749 0.0999756H4.17493C3.08091 0.0999756 2.0317 0.553537 1.25811 1.36088C0.484524 2.16822 0.0499268 3.26322 0.0499268 4.40498V13.015C0.0499268 13.5859 0.267225 14.1333 0.654019 14.537C1.04081 14.9407 1.56542 15.1675 2.11243 15.1675C3.75345 15.1675 5.32727 15.8478 6.48765 17.0588C7.64803 18.2698 8.29993 19.9123 8.29993 21.625C8.29993 23.3376 7.64803 24.9801 6.48765 26.1911C5.32727 27.4021 3.75345 28.0825 2.11243 28.0825C1.56542 28.0825 1.04081 28.3093 0.654019 28.7129C0.267225 29.1166 0.0499268 29.6641 0.0499268 30.235V38.845C0.0499268 39.9867 0.484524 41.0817 1.25811 41.8891C2.0317 42.6964 3.08091 43.15 4.17493 43.15H53.6749C54.7689 43.15 55.8182 42.6964 56.5917 41.8891C57.3653 41.0817 57.7999 39.9867 57.7999 38.845V30.235C57.7999 29.6641 57.5826 29.1166 57.1958 28.7129C56.809 28.3093 56.2844 28.0825 55.7374 28.0825C54.0964 28.0825 52.5226 27.4021 51.3622 26.1911C50.2018 24.9801 49.5499 23.3376 49.5499 21.625C49.5499 19.9123 50.2018 18.2698 51.3622 17.0588C52.5226 15.8478 54.0964 15.1675 55.7374 15.1675ZM4.17493 32.1722C6.50615 31.6782 8.60203 30.3582 10.1075 28.436C11.6129 26.5138 12.4353 24.1076 12.4353 21.625C12.4353 19.1424 11.6129 16.7361 10.1075 14.8139C8.60203 12.8917 6.50615 11.5718 4.17493 11.0777V4.40498H18.6124V38.845H4.17493V32.1722ZM53.6749 32.1722V38.845H22.7374V4.40498H53.6749V11.0777C51.3437 11.5718 49.2478 12.8917 47.7424 14.8139C46.237 16.7361 45.4146 19.1424 45.4146 21.625C45.4146 24.1076 46.237 26.5138 47.7424 28.436C49.2478 30.3582 51.3437 31.6782 53.6749 32.1722Z" fill="#F6F6F6"/>
</svg>
