<svg width="62" height="62" viewBox="0 0 62 62" fill="none" xmlns="http://www.w3.org/2000/svg">
<g id="tiktok_mobile">
<path id="Vector" d="M31.35 0.649902C14.5327 0.649902 0.900024 14.2826 0.900024 31.0999C0.900024 47.9172 14.5327 61.5499 31.35 61.5499C48.1673 61.5499 61.8 47.9172 61.8 31.0999C61.8 14.2826 48.1673 0.649902 31.35 0.649902ZM43.2826 26.2875C40.3722 25.7398 38.7084 23.7159 38.7084 23.9697C38.7084 37.8666 38.7934 36.1421 38.455 40.1221C36.7634 44.6332 35.7484 45.761 31.35 48.0166C26.6746 50.0466 21.2 48.0166 18.9445 45.761C15.5611 43.5055 14.8845 38.9943 14.8845 36.7388C14.8845 34.4832 15.5611 32.2277 16.4634 31.0999C17.3656 29.9721 17.8167 28.8443 19.5084 27.7166C21.2 26.5888 23.4556 25.461 24.5834 25.461L26.8389 25.2355H28.4178C28.4178 27.1168 28.4178 31.7766 28.4178 31.7766C28.4178 31.7766 26.8389 31.0999 24.5834 32.2277C22.3278 33.3555 21.2 35.5956 21.2 36.7388C21.2 38.9943 22.1022 40.1221 23.23 41.2499C24.3578 42.3777 26.8389 42.2649 27.9667 42.2649C29.0945 42.2649 31.7569 40.307 31.8924 37.8666C31.9614 36.625 31.8924 28.274 31.8924 22.5094C31.8924 20.7723 31.8924 15.311 31.9614 11.6227C33.6745 11.6227 36.9889 11.6227 38.7084 11.6227C38.7084 13.257 38.455 15.311 40.3722 17.5666C42.6278 19.8221 44.8834 20.3798 47.4287 20.3798C47.4287 22.0777 47.4287 25.9153 47.4287 27.0431C45.6849 27.0431 44.8834 26.5888 43.2826 26.2875Z" fill="white"/>
</g>
</svg>
